<?xml version="1.0" standalone="no"?><!DOCTYPE svg PUBLIC "-//W3C//DTD SVG 1.1//EN" "http://www.w3.org/Graphics/SVG/1.1/DTD/svg11.dtd"><svg t="1532930366520" class="icon" style="" viewBox="0 0 1025 1024" version="1.1" xmlns="http://www.w3.org/2000/svg" p-id="5231" xmlns:xlink="http://www.w3.org/1999/xlink" width="200.1953125" height="200"><defs><style type="text/css"></style></defs><path d="M1019.392 578.048 896 398.336c32.768-24.576 64-51.968 92.928-83.2 9.984-11.008 9.472-27.904-1.536-37.888-11.008-10.24-27.904-9.472-37.888 1.536-116.224 125.696-271.104 194.816-435.456 194.816-118.016 0-230.4-36.096-327.68-102.4-0.512-0.256-0.512-0.768-1.024-1.024-0.512-0.512-1.28-0.512-2.048-1.024-38.144-26.368-74.24-57.088-107.008-92.928-9.984-11.008-26.88-11.776-37.888-1.536-11.008 9.984-11.776 26.88-1.536 37.888 29.44 32.256 61.696 60.672 95.488 86.016l-127.232 178.944c-8.704 12.032-5.888 28.928 6.4 37.376 4.608 3.328 10.24 4.864 15.616 4.864 8.448 0 16.64-3.84 22.016-11.264l127.744-179.968c38.4 24.064 78.848 44.032 120.832 59.392l-72.96 200.192c-5.12 13.824 2.048 29.184 16.128 34.304 3.072 1.024 6.144 1.536 9.216 1.536 11.008 0 21.248-6.656 25.344-17.664l73.728-202.496c44.8 12.288 91.136 19.456 138.496 21.504L487.68 729.856c0 14.848 12.032 26.88 26.88 26.88 14.848 0 26.88-12.032 26.88-26.88l0-204.288c47.616-2.048 93.952-9.216 139.264-21.504l67.84 191.744c3.84 11.008 14.336 17.92 25.344 17.92 3.072 0 5.888-0.512 8.96-1.536 14.08-4.864 21.248-20.224 16.384-34.304l-67.328-190.208c41.984-15.36 82.176-35.328 120.576-59.392l123.392 179.968c5.12 7.68 13.568 11.776 22.272 11.776 5.12 0 10.496-1.536 15.104-4.608C1024.512 606.976 1027.584 590.08 1019.392 578.048z" p-id="5232"></path></svg>