<?xml version="1.0" standalone="no"?><!DOCTYPE svg PUBLIC "-//W3C//DTD SVG 1.1//EN" "http://www.w3.org/Graphics/SVG/1.1/DTD/svg11.dtd"><svg t="1532920529156" class="icon" style="" viewBox="0 0 1024 1024" version="1.1" xmlns="http://www.w3.org/2000/svg" p-id="5061" xmlns:xlink="http://www.w3.org/1999/xlink" width="200" height="200"><defs><style type="text/css"></style></defs><path d="M512 768c-17.664 0-32-14.304-32-32l0-96c0-17.696 14.336-32 32-32s32 14.304 32 32l0 96C544 753.696 529.664 768 512 768z" p-id="5062"></path><path d="M832 960 192 960c-52.928 0-96-43.072-96-96L96 512c0-52.928 43.072-96 96-96l640 0c52.928 0 96 43.072 96 96l0 352C928 916.928 884.928 960 832 960zM192 480c-17.632 0-32 14.368-32 32l0 352c0 17.664 14.368 32 32 32l640 0c17.664 0 32-14.336 32-32L864 512c0-17.632-14.336-32-32-32L192 480z" p-id="5063"></path><path d="M736 480c-17.696 0-32-14.336-32-32L704 318.016C704 209.248 601.76 128 510.336 128 416.768 128 320 198.912 320 317.568L320 448c0 17.664-14.336 32-32 32s-32-14.336-32-32L256 317.568C256 158.848 385.312 64 510.336 64 632.224 64 768 168.32 768 318.016L768 448C768 465.664 753.696 480 736 480z" p-id="5064"></path></svg>